# Blender 3.5.0
# www.blender.org
o Plane01.001
v -5.000000 -8.888181 15.000002
v 0.000000 -9.293410 15.000002
v 5.000000 -9.143084 15.000002
v -5.000000 -9.296678 10.000001
v 0.000000 -9.580991 10.000001
v 5.000000 -9.454630 10.000002
v -15.000001 -9.855503 5.000001
v -10.000000 -9.848967 5.000001
v -5.000000 -9.506919 5.000001
v 0.000000 -9.576634 5.000001
v 5.000000 -9.794500 5.000001
v 10.000001 -10.084261 5.000001
v 15.000001 -9.855503 5.000001
v -15.000001 -9.620209 0.000001
v -10.000001 -10.053761 0.000001
v -5.000000 -9.852234 0.000001
v 0.000000 -9.369663 0.000001
v 5.000000 -9.706264 0.000001
v 10.000001 -10.025438 0.000001
v 15.000001 -9.620209 0.000001
v -15.000001 -9.103869 -5.000000
v -10.000000 -9.508008 -4.999999
v -5.000000 -9.585350 -4.999999
v 0.000000 -9.147442 -5.000000
v 5.000000 -9.232408 -5.000000
v 10.000001 -9.240034 -5.000000
v 15.000001 -9.103869 -5.000000
v -5.000000 -9.365307 -10.000000
v 0.000000 -9.204088 -10.000000
v 5.000000 -8.954632 -9.999999
v -5.000000 -8.888183 -15.000000
v 0.000000 -9.293412 -15.000000
v 5.000000 -9.143085 -15.000000
v -2.500000 -9.134912 15.000003
v 7.500000 -8.923312 15.000003
v -7.500000 -9.255012 10.000001
v 2.500000 -9.550490 10.000001
v -12.500002 -9.896353 5.000001
v -2.500000 -9.495208 5.000001
v 7.500001 -9.972060 5.000001
v -15.000002 -9.811385 2.500001
v -7.500001 -10.039191 0.000001
v 2.500000 -9.457492 0.000001
v 10.000000 -10.172495 2.500001
v -12.500002 -9.321053 -5.000000
v -2.500000 -9.358227 -5.000000
v 7.500001 -9.266858 -5.000000
v -15.000002 -8.871843 -7.500000
v -7.500001 -9.201773 -9.999999
v 2.500000 -9.083035 -10.000000
v -2.500000 -9.134914 -15.000001
v 7.500000 -8.923314 -15.000001
v 0.000000 -9.490306 2.500001
v -5.000001 -9.120616 12.500002
v -5.000001 -9.762503 -2.500000
v 5.000000 -9.287419 12.500003
v 0.000000 -9.252835 -12.500001
v 5.000000 -9.484451 -2.500000
v 5.000000 -9.816968 2.500001
v 15.000002 -9.364490 -2.499999
v -10.000000 -9.598557 7.500001
v -10.000000 -9.219611 -7.500000
v 0.000000 -9.614761 7.500001
v 0.000000 -9.151256 -7.500000
v 10.000000 -9.783744 7.500001
v 10.000000 -8.878653 -7.500000
v -5.000001 -9.715933 2.500001
v 7.500001 -8.791506 -9.999999
v -7.500000 -8.641449 15.000003
v 2.500000 -9.284423 15.000003
v -2.500000 -9.452315 10.000001
v 7.500001 -9.408470 10.000001
v -15.000002 -9.679848 7.500001
v -7.500001 -9.671407 5.000001
v 2.500000 -9.668411 5.000001
v 12.500002 -10.023804 5.000001
v -12.500002 -9.887638 0.000001
v -2.500000 -9.559072 0.000001
v 7.500001 -9.938972 0.000001
v -15.000002 -9.364490 -2.499999
v -7.500000 -9.623886 -5.000000
v 2.500000 -9.142540 -5.000000
v 12.500002 -9.179713 -5.000000
v -2.500000 -9.335352 -10.000000
v 15.000002 -9.811385 2.500001
v -7.500000 -8.641451 -15.000001
v 2.500000 -9.284425 -15.000001
v -10.000000 -9.834397 -2.500000
v 0.000000 -9.461712 12.500003
v 12.500002 -9.889000 0.000001
v 0.000000 -9.235677 -2.500000
v 10.000000 -9.669909 -2.500000
v -5.000000 -9.391585 7.500000
v 5.000000 -9.009234 -12.500001
v -5.000000 -9.476146 -7.500000
v 5.000000 -9.648257 7.500001
v 5.000000 -9.037556 -7.500000
v -5.000001 -9.158607 -12.500001
v 15.000002 -9.679848 7.500001
v 15.000002 -8.871843 -7.500000
v -10.000000 -10.033879 2.500001
v 2.500000 -9.598236 2.500001
v 7.500000 -8.805122 -12.500000
v -12.500001 -9.037559 -7.499999
v -7.500000 -8.972433 12.500002
v -2.500000 -9.485251 7.500001
v 2.500000 -9.164582 -12.500000
v -7.500000 -9.406600 -7.500000
v 2.500000 -9.643560 7.500002
v 7.500000 -9.146641 12.500002
v -7.500000 -9.464536 7.500000
v 12.500001 -9.558610 -2.499999
v 7.500000 -9.718604 7.500001
v -2.500000 -9.324100 12.500002
v -7.500000 -9.891485 -2.499999
v 7.500000 -8.958359 -7.500000
v 2.500000 -9.287098 -2.499999
v 12.500001 -9.760851 7.500001
v -7.500000 -8.940965 -12.500000
v 2.500000 -9.072398 -7.500000
v 7.500000 -9.637025 -2.499999
v -7.500000 -9.917952 2.500001
v 12.500001 -10.061182 2.500001
v -12.500001 -9.975839 2.500001
v -2.500000 -9.464010 -2.499999
v -12.500001 -9.636158 -2.499999
v -2.500000 -9.339232 -7.500000
v 12.500001 -8.856150 -7.499999
v -2.500000 -9.545779 2.500001
v 2.500000 -9.424605 12.500002
v -12.500001 -9.665092 7.500001
v -2.500000 -9.259848 -12.500000
v 7.500000 -10.055752 2.500001
vn 0.0278 0.9995 0.0117
vn 0.0398 0.9992 0.0023
vn 0.0602 0.9975 0.0358
vn 0.0088 0.9996 0.0280
vn 0.0569 0.9979 -0.0314
vn 0.0847 0.9962 0.0209
vn 0.0880 0.9937 0.0693
vn 0.0621 0.9962 0.0603
vn -0.0164 0.9989 0.0451
vn -0.0528 0.9986 0.0059
vn -0.0581 0.9978 0.0306
vn -0.0807 0.9965 -0.0217
vn -0.0684 0.9970 -0.0354
vn -0.0908 0.9950 -0.0408
vn -0.0717 0.9962 -0.0504
vn 0.0863 0.9904 0.1080
vn 0.0805 0.9902 0.1141
vn 0.0714 0.9918 0.1061
vn 0.0691 0.9923 0.1029
vn 0.0610 0.9915 0.1147
vn 0.0732 0.9920 0.1028
vn 0.0729 0.9883 -0.1342
vn 0.0838 0.9917 -0.0978
vn 0.0692 0.9938 -0.0868
vn 0.0501 0.9910 -0.1242
vn 0.0382 0.9975 -0.0596
vn 0.0043 0.9951 -0.0988
vn 0.0565 0.9977 -0.0372
vn 0.0400 0.9991 -0.0146
vn 0.0032 0.9990 -0.0439
vn 0.0227 0.9992 -0.0343
vn 0.0294 0.9995 -0.0076
vn 0.0069 0.9998 -0.0160
vn -0.0350 0.9977 -0.0579
vn -0.0433 0.9990 -0.0108
vn -0.0428 0.9990 -0.0129
vn -0.0443 0.9984 -0.0340
vn -0.0147 0.9999 -0.0090
vn -0.0393 0.9984 -0.0413
vn 0.0054 1.0000 -0.0076
vn 0.0168 0.9955 0.0931
vn 0.0496 0.9955 0.0803
vn -0.0511 0.9970 0.0589
vn -0.0134 0.9989 0.0442
vn 0.0258 0.9979 0.0588
vn 0.0764 0.9931 0.0884
vn -0.0196 0.9987 -0.0475
vn 0.0079 0.9996 -0.0285
vn -0.0243 0.9969 -0.0754
vn 0.0155 0.9976 -0.0679
vn -0.0637 0.9959 -0.0650
vn -0.0782 0.9924 -0.0947
vn -0.0566 0.9933 -0.1007
vn -0.0527 0.9963 -0.0685
vn -0.0143 0.9934 -0.1135
vn -0.0366 0.9961 -0.0804
vn -0.0601 0.9947 -0.0829
vn -0.0326 0.9936 -0.1079
vn -0.0352 0.9961 -0.0814
vn -0.0085 0.9954 0.0956
vn -0.0733 0.9926 0.0969
vn -0.0571 0.9893 0.1345
vn -0.0145 0.9892 0.1460
vn -0.0972 0.9908 0.0942
vn -0.0724 0.9900 0.1214
vn -0.0327 0.9924 0.1186
vn -0.0290 0.9907 0.1331
vn -0.0176 0.9890 0.1465
vn 0.0245 0.9939 -0.1076
vn 0.0034 0.9914 -0.1310
vn 0.0075 0.9975 -0.0704
vn 0.0534 0.9967 -0.0613
vn 0.0742 0.9942 -0.0775
vn 0.0682 0.9955 -0.0662
vn 0.0249 0.9975 -0.0664
vn 0.0224 0.9981 -0.0578
vn 0.0249 0.9990 0.0381
vn -0.0395 0.9992 0.0103
vn -0.0134 0.9966 0.0818
vn 0.0479 0.9935 0.1029
vn -0.0876 0.9962 0.0007
vn -0.0796 0.9952 0.0572
vn 0.0241 0.9957 0.0889
vn 0.0021 0.9917 0.1287
vn -0.0303 0.9955 0.0902
vn -0.0197 0.9983 0.0544
vn -0.0235 0.9937 0.1099
vn 0.0457 0.9968 0.0661
vn -0.0334 0.9983 0.0479
vn 0.0648 0.9933 0.0961
vn 0.0152 0.9987 0.0479
vn -0.0436 0.9987 0.0254
vn -0.0272 0.9910 -0.1311
vn -0.0393 0.9913 -0.1255
vn -0.0665 0.9969 -0.0431
vn -0.0460 0.9974 -0.0558
vn 0.0628 0.9944 0.0852
vn 0.0908 0.9902 0.1065
vn 0.0806 0.9921 0.0958
vn 0.0945 0.9890 0.1139
vn -0.0196 0.9997 0.0170
vn -0.0500 0.9987 -0.0015
vn 0.0586 0.9948 0.0831
vn 0.0346 0.9910 0.1290
vn -0.0587 0.9962 -0.0640
vn -0.0094 0.9992 -0.0383
vn -0.0698 0.9960 -0.0559
vn -0.0675 0.9973 0.0280
vn 0.0006 0.9999 0.0142
vn -0.0932 0.9950 0.0368
vn 0.0231 0.9988 -0.0441
vn 0.0064 0.9982 -0.0592
vn 0.0435 0.9991 0.0023
vn 0.0636 0.9977 0.0243
vn 0.0775 0.9948 0.0658
vn 0.0964 0.9923 0.0781
vn -0.0855 0.9962 0.0185
vn -0.0981 0.9942 0.0443
vn -0.0860 0.9958 0.0309
vn 0.0880 0.9902 0.1087
vn 0.1016 0.9890 0.1072
vn -0.0623 0.9980 0.0104
vn -0.0276 0.9994 0.0187
vn -0.0092 0.9939 0.1097
vn -0.0034 0.9945 0.1048
vn -0.0431 0.9990 -0.0133
vn -0.0324 0.9977 -0.0592
vn -0.0312 0.9979 -0.0564
vn -0.0082 0.9930 -0.1180
vn 0.0022 0.9930 -0.1184
vn 0.0215 0.9990 0.0393
vn 0.0498 0.9976 0.0479
vn 0.0658 0.9978 0.0106
vt 0.166667 -0.500000
vt 0.500000 -0.500000
vt 0.833333 -0.500000
vt 0.166667 -0.166667
vt 0.500000 -0.166667
vt 0.833333 -0.166667
vt -0.500000 0.166667
vt -0.166667 0.166667
vt 0.166667 0.166667
vt 0.500000 0.166667
vt 0.833333 0.166667
vt 1.166667 0.166667
vt 1.500000 0.166667
vt -0.500000 0.500000
vt -0.166667 0.500000
vt 0.166667 0.500000
vt 0.500000 0.500000
vt 0.833333 0.500000
vt 1.166667 0.500000
vt 1.500000 0.500000
vt -0.500000 0.833333
vt -0.166667 0.833333
vt 0.166667 0.833333
vt 0.500000 0.833333
vt 0.833333 0.833333
vt 1.166667 0.833333
vt 1.500000 0.833333
vt 0.166667 1.166667
vt 0.500000 1.166667
vt 0.833333 1.166667
vt 0.166667 1.500000
vt 0.500000 1.500000
vt 0.833333 1.500000
vt 0.333333 -0.500000
vt 1.000000 -0.500000
vt 0.000000 -0.166667
vt 0.666667 -0.166667
vt -0.333334 0.166667
vt 0.333333 0.166667
vt 1.000000 0.166667
vt -0.500000 0.333333
vt 0.000000 0.500000
vt 0.666667 0.500000
vt 1.166667 0.333333
vt -0.333334 0.833333
vt 0.333333 0.833333
vt 1.000000 0.833333
vt -0.500000 1.000000
vt 0.000000 1.166667
vt 0.666667 1.166667
vt 0.333333 1.500000
vt 1.000000 1.500000
vt 0.500000 0.333333
vt 0.166667 -0.333334
vt 0.166667 0.666667
vt 0.833333 -0.333334
vt 0.500000 1.333334
vt 0.833333 0.666667
vt 0.833333 0.333333
vt 1.500000 0.666667
vt -0.166667 0.000000
vt -0.166667 1.000000
vt 0.500000 0.000000
vt 0.500000 1.000000
vt 1.166667 0.000000
vt 1.166667 1.000000
vt 0.166667 0.333333
vt 1.000000 1.166667
vt 0.000000 -0.500000
vt 0.666667 -0.500000
vt 0.333333 -0.166667
vt 1.000000 -0.166667
vt -0.500000 0.000000
vt 0.000000 0.166667
vt 0.666667 0.166667
vt 1.333334 0.166667
vt -0.333334 0.500000
vt 0.333333 0.500000
vt 1.000000 0.500000
vt -0.500000 0.666667
vt 0.000000 0.833333
vt 0.666667 0.833333
vt 1.333334 0.833333
vt 0.333333 1.166667
vt 1.500000 0.333333
vt 0.000000 1.500000
vt 0.666667 1.500000
vt -0.166667 0.666667
vt 0.500000 -0.333334
vt 1.333334 0.500000
vt 0.500000 0.666667
vt 1.166667 0.666667
vt 0.166667 0.000000
vt 0.833333 1.333334
vt 0.166667 1.000000
vt 0.833333 0.000000
vt 0.833333 1.000000
vt 0.166667 1.333334
vt 1.500000 0.000000
vt 1.500000 1.000000
vt -0.166667 0.333333
vt 0.666667 0.333334
vt 1.000000 1.333334
vt -0.333333 1.000000
vt 0.000000 -0.333334
vt 0.333334 -0.000000
vt 0.666667 1.333334
vt 0.000000 1.000000
vt 0.666667 -0.000000
vt 1.000000 -0.333334
vt 0.000000 -0.000000
vt 1.333334 0.666667
vt 1.000000 -0.000000
vt 0.333333 -0.333334
vt 0.000000 0.666666
vt 1.000000 1.000000
vt 0.666667 0.666666
vt 1.333334 -0.000000
vt -0.000000 1.333334
vt 0.666667 1.000000
vt 1.000000 0.666666
vt 0.000000 0.333334
vt 1.333334 0.333333
vt -0.333333 0.333333
vt 0.333334 0.666666
vt -0.333333 0.666667
vt 0.333334 1.000000
vt 1.333334 1.000000
vt 0.333334 0.333334
vt 0.666667 -0.333334
vt -0.333333 0.000000
vt 0.333334 1.333334
vt 1.000000 0.333334
s 1
usemtl Material.001
f 10/10/1 75/75/2 102/102/3 53/53/4
f 75/75/2 11/11/5 59/59/6 102/102/3
f 102/102/3 59/59/6 18/18/7 43/43/8
f 53/53/4 102/102/3 43/43/8 17/17/9
f 30/30/10 68/68/11 103/103/12 94/94/13
f 94/94/13 103/103/12 52/52/14 33/33/15
f 21/21/16 45/45/17 104/104/18 48/48/19
f 45/45/17 22/22/20 62/62/21 104/104/18
f 69/69/22 1/1/23 54/54/24 105/105/25
f 105/105/25 54/54/24 4/4/26 36/36/27
f 4/4/26 71/71/28 106/106/29 93/93/30
f 71/71/28 5/5/31 63/63/32 106/106/29
f 106/106/29 63/63/32 10/10/1 39/39/33
f 93/93/30 106/106/29 39/39/33 9/9/34
f 29/29/35 50/50/36 107/107/37 57/57/38
f 50/50/36 30/30/10 94/94/13 107/107/37
f 107/107/37 94/94/13 33/33/15 87/87/39
f 57/57/38 107/107/37 87/87/39 32/32/40
f 22/22/20 81/81/41 108/108/42 62/62/21
f 81/81/41 23/23/43 95/95/44 108/108/42
f 108/108/42 95/95/44 28/28/45 49/49/46
f 5/5/31 37/37/47 109/109/48 63/63/32
f 37/37/47 6/6/49 96/96/50 109/109/48
f 109/109/48 96/96/50 11/11/5 75/75/2
f 63/63/32 109/109/48 75/75/2 10/10/1
f 3/3/51 35/35/52 110/110/53 56/56/54
f 56/56/54 110/110/53 72/72/55 6/6/49
f 36/36/27 4/4/26 93/93/30 111/111/56
f 111/111/56 93/93/30 9/9/34 74/74/57
f 61/61/58 111/111/56 74/74/57 8/8/59
f 19/19/60 90/90/61 112/112/62 92/92/63
f 90/90/61 20/20/64 60/60/65 112/112/62
f 112/112/62 60/60/65 27/27/66 83/83/67
f 92/92/63 112/112/62 83/83/67 26/26/68
f 6/6/49 72/72/55 113/113/69 96/96/50
f 113/113/69 65/65/70 12/12/71 40/40/72
f 96/96/50 113/113/69 40/40/72 11/11/5
f 1/1/23 34/34/73 114/114/74 54/54/24
f 34/34/73 2/2/75 89/89/76 114/114/74
f 114/114/74 89/89/76 5/5/31 71/71/28
f 54/54/24 114/114/74 71/71/28 4/4/26
f 15/15/77 42/42/78 115/115/79 88/88/80
f 42/42/78 16/16/81 55/55/82 115/115/79
f 115/115/79 55/55/82 23/23/43 81/81/41
f 88/88/80 115/115/79 81/81/41 22/22/20
f 25/25/83 47/47/84 116/116/85 97/97/86
f 47/47/84 26/26/68 66/66/87 116/116/85
f 97/97/86 116/116/85 68/68/11 30/30/10
f 17/17/9 43/43/8 117/117/88 91/91/89
f 43/43/8 18/18/7 58/58/90 117/117/88
f 117/117/88 58/58/90 25/25/83 82/82/91
f 91/91/89 117/117/88 82/82/91 24/24/92
f 118/118/93 99/99/94 13/13/95 76/76/96
f 65/65/70 118/118/93 76/76/96 12/12/71
f 49/49/46 28/28/45 98/98/97 119/119/98
f 119/119/98 98/98/97 31/31/99 86/86/100
f 24/24/92 82/82/91 120/120/101 64/64/102
f 82/82/91 25/25/83 97/97/86 120/120/101
f 120/120/101 97/97/86 30/30/10 50/50/36
f 64/64/102 120/120/101 50/50/36 29/29/35
f 18/18/7 79/79/103 121/121/104 58/58/90
f 79/79/103 19/19/60 92/92/63 121/121/104
f 121/121/104 92/92/63 26/26/68 47/47/84
f 58/58/90 121/121/104 47/47/84 25/25/83
f 8/8/59 74/74/57 122/122/105 101/101/106
f 74/74/57 9/9/34 67/67/107 122/122/105
f 122/122/105 67/67/107 16/16/81 42/42/78
f 101/101/106 122/122/105 42/42/78 15/15/77
f 12/12/71 76/76/96 123/123/108 44/44/109
f 76/76/96 13/13/95 85/85/110 123/123/108
f 123/123/108 85/85/110 20/20/64 90/90/61
f 44/44/109 123/123/108 90/90/61 19/19/60
f 7/7/111 38/38/112 124/124/113 41/41/114
f 38/38/112 8/8/59 101/101/106 124/124/113
f 124/124/113 101/101/106 15/15/77 77/77/115
f 41/41/114 124/124/113 77/77/115 14/14/116
f 16/16/81 78/78/117 125/125/118 55/55/82
f 78/78/117 17/17/9 91/91/89 125/125/118
f 125/125/118 91/91/89 24/24/92 46/46/119
f 55/55/82 125/125/118 46/46/119 23/23/43
f 14/14/116 77/77/115 126/126/120 80/80/121
f 77/77/115 15/15/77 88/88/80 126/126/120
f 126/126/120 88/88/80 22/22/20 45/45/17
f 80/80/121 126/126/120 45/45/17 21/21/16
f 23/23/43 46/46/119 127/127/122 95/95/44
f 46/46/119 24/24/92 64/64/102 127/127/122
f 127/127/122 64/64/102 29/29/35 84/84/123
f 95/95/44 127/127/122 84/84/123 28/28/45
f 26/26/68 83/83/67 128/128/124 66/66/87
f 83/83/67 27/27/66 100/100/125 128/128/124
f 9/9/34 39/39/33 129/129/126 67/67/107
f 39/39/33 10/10/1 53/53/4 129/129/126
f 129/129/126 53/53/4 17/17/9 78/78/117
f 67/67/107 129/129/126 78/78/117 16/16/81
f 2/2/75 70/70/127 130/130/128 89/89/76
f 70/70/127 3/3/51 56/56/54 130/130/128
f 130/130/128 56/56/54 6/6/49 37/37/47
f 89/89/76 130/130/128 37/37/47 5/5/31
f 131/131/129 61/61/58 8/8/59 38/38/112
f 73/73/130 131/131/129 38/38/112 7/7/111
f 28/28/45 84/84/123 132/132/131 98/98/97
f 84/84/123 29/29/35 57/57/38 132/132/131
f 132/132/131 57/57/38 32/32/40 51/51/132
f 98/98/97 132/132/131 51/51/132 31/31/99
f 11/11/5 40/40/72 133/133/133 59/59/6
f 40/40/72 12/12/71 44/44/109 133/133/133
f 133/133/133 44/44/109 19/19/60 79/79/103
f 59/59/6 133/133/133 79/79/103 18/18/7
