# Blender 3.5.0
# www.blender.org
o Plane.004
v -13.649907 -11.581541 13.726568
v 11.679125 -12.813061 14.174726
v -11.681312 11.581540 11.995126
v 13.895671 12.368033 11.775899
v -13.010046 -11.457582 -12.373839
v 10.395403 -12.603951 -11.988833
v -11.354691 11.817457 -10.106214
v 12.611950 12.689103 -13.789335
v -11.759765 11.581540 12.092710
v -13.728360 -11.581541 13.824152
v 11.600672 -12.813061 14.272309
v 13.817218 12.368033 11.873483
v -11.433144 11.817457 -10.008630
v -13.088499 -11.457582 -12.276256
v 10.316950 -12.603951 -11.891250
v 12.533497 12.689103 -13.691751
v -13.649907 -11.581541 13.726568
v 11.679125 -12.813061 14.174726
v -11.681312 11.581540 11.995126
v 13.895671 12.368033 11.775899
v -13.010046 -11.457582 -12.373839
v 10.395403 -12.603951 -11.988833
v -11.354691 11.817457 -10.106214
v 12.611950 12.689103 -13.789335
v -11.759765 11.581540 12.092710
v -13.728360 -11.581541 13.824152
v 11.600672 -12.813061 14.272309
v 13.817218 12.368033 11.873483
v -11.433144 11.817457 -10.008630
v -13.088499 -11.457582 -12.276256
v 10.316950 -12.603951 -11.891250
v 12.533497 12.689103 -13.691751
vn 0.0037 -0.0854 -0.9963
vn 0.0694 -0.0151 0.9975
vn 0.9968 -0.0780 0.0194
vn -0.9945 0.0915 0.0503
vn -0.0037 0.0854 0.9963
vn -0.0694 0.0151 -0.9975
vn -0.9968 0.0780 -0.0194
vn 0.9945 -0.0915 -0.0503
vt 0.498228 0.000977
vt 0.501772 0.497725
vt 0.498228 0.498228
vt 0.999023 0.497725
vt 0.000977 0.000977
vt 0.501772 0.994976
vt 0.000977 0.498228
vt 0.999023 0.994976
vt 0.996644 0.498228
vt 0.499393 0.498228
vt 0.499393 0.000977
vt 0.996644 0.000977
vt 0.498228 0.996644
vt 0.000977 0.996644
vt 0.000977 0.499393
vt 0.498228 0.499393
vt 0.498228 0.000977
vt 0.501772 0.497725
vt 0.498228 0.498228
vt 0.999023 0.497725
vt 0.000977 0.000977
vt 0.501772 0.994976
vt 0.000977 0.498228
vt 0.999023 0.994976
vt 0.996644 0.498228
vt 0.499393 0.498228
vt 0.499393 0.000977
vt 0.996644 0.000977
vt 0.498228 0.996644
vt 0.000977 0.996644
vt 0.000977 0.499393
vt 0.498228 0.499393
s 0
f 10/10/1 9/9/1 12/12/1 11/11/1
f 14/14/2 15/15/2 16/16/2 13/13/2
f 5/5/3 7/7/3 3/3/3 1/1/3
f 6/6/4 2/2/4 4/4/4 8/8/4
f 26/26/5 27/27/5 28/28/5 25/25/5
f 30/30/6 29/29/6 32/32/6 31/31/6
f 21/21/7 17/17/7 19/19/7 23/23/7
f 22/22/8 24/24/8 20/20/8 18/18/8
