# Blender 4.5.0
# www.blender.org
o Plane.004
v -14.010046 -11.457583 -12.373838
v -14.728360 -11.581540 13.824153
v 12.600672 -12.813060 14.272310
v -11.357651 11.775839 -10.110270
v 11.316950 -12.603952 -11.891249
v -11.696060 11.408008 12.008097
v -13.744062 0.000000 12.958431
v -12.182368 0.179937 -11.240026
v -13.182368 0.179937 -11.240026
v -14.329977 -11.519562 5.928507
v -12.744062 0.000000 12.958431
v -11.862791 11.699499 5.757659
v 10.904026 -12.708506 1.058687
v 12.503676 0.042575 -12.889084
v 11.853710 12.528568 -1.006720
v 13.787397 -0.222512 12.975312
v -9.540342 0.089969 6.062552
v -14.170012 -11.488572 -5.554697
v -11.787610 11.758478 -3.894527
v -9.385890 2.113200 -4.920769
v -13.457451 -11.504066 0.224487
v -12.477174 11.728989 0.954878
v -10.192022 1.101585 0.570892
v -12.696060 11.408008 12.008097
v 13.530155 12.650965 -13.689036
v -12.357651 11.775839 -10.110270
v -13.728360 -11.581540 13.824153
v -13.010046 -11.457583 -12.373838
v 14.809838 12.284196 11.881469
v 10.124670 8.124413 1.034701
v 10.015515 7.665995 0.115451
v 10.035305 8.098292 -0.923985
v 10.228530 9.540226 -1.295912
v 10.889466 10.110477 -0.201780
v 10.410505 9.551755 1.315051
v -12.744062 0.000000 12.958431
v -12.182368 0.179937 -11.240026
v -13.010046 -11.457583 -13.373838
v -13.728360 -11.581540 14.824153
v 11.600672 -12.813060 15.272310
v 10.316950 -12.603952 -12.891249
v -12.744062 0.000000 13.958431
v -1.237563 -12.197300 13.986724
v 0.689084 11.974788 12.085336
v -1.533967 -12.030768 -12.073207
v 0.248479 12.253280 -11.858166
v -12.182368 0.179937 -12.240026
v 11.503676 0.042575 -13.889084
v 12.787397 -0.222512 13.975312
v -0.417799 7.507573 -10.193681
v -0.017559 4.386293 11.689829
v -11.696060 11.408008 13.008097
v 12.530155 12.650965 -14.689036
v -11.357651 11.775839 -11.110270
v 13.809838 12.284196 12.881469
v -14.010046 -11.457583 -12.373838
v -14.728360 -11.581540 13.824153
v 12.600672 -12.813060 14.272310
v -11.357651 11.775839 -10.110270
v 11.316950 -12.603952 -11.891249
v -11.696060 11.408008 12.008097
v -13.744062 0.000000 12.958431
v -12.182368 0.179937 -11.240026
v -13.182368 0.179937 -11.240026
v -14.329977 -11.519562 5.928507
v -12.744062 0.000000 12.958431
v -11.862791 11.699499 5.757659
v 10.904026 -12.708506 1.058687
v 12.503676 0.042575 -12.889084
v 11.853710 12.528568 -1.006720
v 13.787397 -0.222512 12.975312
v -9.540342 0.089969 6.062552
v -14.170012 -11.488572 -5.554697
v -11.787610 11.758478 -3.894527
v -9.385890 2.113200 -4.920769
v -13.457451 -11.504066 0.224487
v -12.477174 11.728989 0.954878
v -10.192022 1.101585 0.570892
v -12.696060 11.408008 12.008097
v 13.530155 12.650965 -13.689036
v -12.357651 11.775839 -10.110270
v -13.728360 -11.581540 13.824153
v -13.010046 -11.457583 -12.373838
v 14.809838 12.284196 11.881469
v 10.124670 8.124413 1.034701
v 10.015515 7.665995 0.115451
v 10.035305 8.098292 -0.923985
v 10.228530 9.540226 -1.295912
v 10.889466 10.110477 -0.201780
v 10.410505 9.551755 1.315051
v -12.744062 0.000000 12.958431
v -12.182368 0.179937 -11.240026
v -13.010046 -11.457583 -13.373838
v -13.728360 -11.581540 14.824153
v 11.600672 -12.813060 15.272310
v 10.316950 -12.603952 -12.891249
v -12.744062 0.000000 13.958431
v -1.237563 -12.197300 13.986724
v 0.689084 11.974788 12.085336
v -1.533967 -12.030768 -12.073207
v 0.248479 12.253280 -11.858166
v -12.182368 0.179937 -12.240026
v 11.503676 0.042575 -13.889084
v 12.787397 -0.222512 13.975312
v -0.417799 7.507573 -10.193681
v -0.017559 4.386293 11.689829
v -11.696060 11.408008 13.008097
v 12.530155 12.650965 -14.689036
v -11.357651 11.775839 -11.110270
v 13.809838 12.284196 12.881469
vn -0.9234 0.3814 -0.0436
vn -0.8536 0.0351 -0.5198
vn -0.9704 -0.1978 -0.1386
vn -0.9569 0.2435 0.1584
vn -0.9633 -0.2007 -0.1783
vn -0.9386 0.3247 0.1166
vn -0.9234 0.3814 -0.0437
vn -0.8586 0.0111 0.5124
vn -0.9429 0.3325 -0.0206
vn -0.8587 0.0111 0.5124
vn -0.9428 0.3326 -0.0206
vn -0.9644 -0.2495 0.0877
vn -0.8536 0.0339 -0.5199
vn -0.9429 0.3326 -0.0206
vn 0.9783 -0.0634 0.1971
vn 0.9910 0.0370 -0.1285
vn 0.9985 0.0436 0.0344
vn 0.8795 -0.4501 -0.1546
vn 0.9363 -0.0979 -0.3373
vn 0.9910 0.0339 -0.1293
vn 0.9250 -0.1097 -0.3639
vn 0.9912 0.0369 -0.1272
vn 0.9270 -0.1078 -0.3591
vn 0.9681 -0.0638 0.2423
vn 0.9910 0.0369 -0.1285
vn 0.9985 0.0448 0.0324
vn 0.8353 -0.5187 -0.1825
vn -0.0637 0.0991 -0.9930
vn -0.2052 -0.2982 -0.9322
vn -0.3155 -0.0345 -0.9483
vn -0.0637 0.0992 -0.9930
vn -0.0638 0.0992 -0.9930
vn 0.1164 0.0886 -0.9892
vn 0.1172 0.0880 -0.9892
vn 0.1549 0.0605 0.9861
vn -0.0918 0.1432 0.9854
vn 0.1523 0.0681 0.9860
vn 0.0728 0.1316 0.9886
vn -0.0594 -0.0464 0.9972
vn -0.1407 0.0977 0.9852
vn -0.3211 -0.0445 -0.9460
vn -0.1346 0.1141 0.9843
vn 0.9234 -0.3814 0.0436
vn 0.9704 0.1978 0.1386
vn 0.8536 -0.0351 0.5198
vn 0.9569 -0.2435 -0.1584
vn 0.9633 0.2005 0.1783
vn 0.9386 -0.3247 -0.1166
vn 0.9234 -0.3814 0.0437
vn 0.8586 -0.0111 -0.5124
vn 0.8587 -0.0111 -0.5124
vn 0.9429 -0.3326 0.0206
vn 0.9428 -0.3326 0.0206
vn 0.9644 0.2495 -0.0877
vn 0.8536 -0.0339 0.5199
vn -0.9784 0.0638 -0.1965
vn -0.9984 -0.0444 -0.0339
vn -0.9910 -0.0370 0.1285
vn -0.9361 0.1017 0.3368
vn -0.8806 0.4484 0.1530
vn -0.9911 -0.0374 0.1280
vn -0.9249 0.1108 0.3636
vn -0.9271 0.1078 0.3591
vn -0.9912 -0.0369 0.1272
vn -0.9681 0.0638 -0.2422
vn -0.9669 0.0635 -0.2472
vn -0.9913 -0.0370 0.1265
vn -0.8387 0.5165 0.1727
vn -0.9985 -0.0448 -0.0323
vn 0.0637 -0.0991 0.9930
vn 0.3155 0.0345 0.9483
vn 0.2052 0.2981 0.9322
vn 0.0637 -0.0990 0.9930
vn 0.0638 -0.0992 0.9930
vn -0.1164 -0.0886 0.9892
vn -0.1172 -0.0880 0.9892
vn -0.1549 -0.0606 -0.9861
vn -0.1523 -0.0681 -0.9860
vn 0.0918 -0.1432 -0.9854
vn -0.0728 -0.1316 -0.9886
vn 0.0594 0.0464 -0.9972
vn 0.1407 -0.0976 -0.9852
vn 0.3211 0.0445 0.9460
vn 0.1346 -0.1141 -0.9843
vn 0.9669 -0.0638 0.2471
vt 0.357913 0.256997
vt 0.499625 0.496948
vt 0.353843 0.496080
vt 0.243849 0.271169
vt 0.247999 0.499103
vt 0.251315 0.002529
vt 0.352145 0.001803
vt 0.498810 0.000977
vt 0.000977 0.249603
vt 0.126097 0.298119
vt 0.001272 0.498346
vt 0.132169 0.001060
vt 0.243323 0.006888
vt 0.139323 0.494481
vt 0.243735 0.007608
vt 0.354742 0.496100
vt 0.498228 0.249603
vt 0.139163 0.494384
vt 0.235688 0.002859
vt 0.000977 0.000977
vt 0.003056 0.006027
vt 0.927847 0.743852
vt 0.894200 0.719352
vt 0.903180 0.738503
vt 0.940067 0.721061
vt 0.928835 0.693105
vt 0.906144 0.699210
vt 0.997833 0.497977
vt 0.749208 0.497977
vt 0.750398 0.994976
vt 0.502090 0.748712
vt 0.500000 0.995810
vt 0.999491 0.724540
vt 0.999371 0.724075
vt 0.502093 0.748720
vt 0.401090 0.765128
vt 0.492181 0.755384
vt 0.003823 0.750949
vt 0.000977 0.996644
vt 0.003826 0.750937
vt 0.249603 0.996644
vt 0.843152 0.257488
vt 0.503485 0.253488
vt 0.503491 0.253507
vt 0.993823 0.255773
vt 0.995816 0.000977
vt 0.492133 0.755311
vt 0.748019 0.000977
vt 0.993810 0.255731
vt 0.999023 0.994976
vt 0.894574 0.719357
vt 0.894572 0.719351
s 1
f 17/1/1 24/2/2 12/3/3
f 23/4/4 17/1/1 22/5/5
f 21/6/6 17/1/1 23/4/4
f 10/7/1 2/8/7 17/1/1
f 9/9/8 20/10/9 26/11/10
f 18/12/11 21/13/6 20/10/9
f 20/10/9 22/5/5 19/14/12
f 17/1/1 21/15/6 10/7/1
f 22/5/5 17/1/1 12/16/3
f 17/1/1 2/8/7 7/17/13
f 24/2/2 17/1/1 7/17/13
f 26/11/10 20/10/9 19/18/12
f 20/10/9 21/19/6 23/4/4
f 20/10/9 1/20/14 18/12/11
f 22/5/5 20/10/9 23/4/4
f 1/21/14 20/10/9 9/9/8
f 33/22/15 31/23/16 32/24/17
f 33/22/15 34/25/18 35/26/19
f 35/26/19 31/23/16 33/22/15
f 30/27/20 31/23/16 35/26/19
f 29/28/21 30/27/20 35/26/19
f 3/2/22 30/27/20 16/29/23
f 14/30/24 33/22/15 32/24/17
f 32/24/17 13/31/25 5/32/26
f 35/26/19 15/33/27 29/28/21
f 33/22/15 15/34/27 34/25/18
f 13/35/25 30/27/20 3/2/22
f 5/32/26 14/30/24 32/24/17
f 50/36/28 46/37/29 53/2/30
f 45/38/31 50/36/28 41/11/32
f 38/39/33 50/36/28 45/40/31
f 47/41/34 54/32/34 50/36/28
f 42/29/35 51/42/36 52/28/37
f 39/2/38 43/43/36 51/42/36
f 43/44/36 40/8/36 51/42/36
f 44/45/39 51/42/36 55/46/40
f 53/2/30 48/5/41 50/36/28
f 41/11/32 50/36/28 48/5/41
f 50/36/28 38/39/33 47/41/34
f 50/36/28 54/32/34 46/47/29
f 51/42/36 40/8/36 49/48/42
f 52/28/37 51/42/36 44/49/39
f 49/48/42 55/46/40 51/42/36
f 51/42/36 42/29/35 39/2/38
f 72/1/43 67/3/44 79/2/45
f 78/4/46 77/5/47 72/1/43
f 76/6/48 78/4/46 72/1/43
f 65/7/43 72/1/43 57/8/49
f 64/9/50 81/11/51 75/10/52
f 73/12/53 75/10/52 76/13/48
f 75/10/52 74/14/54 77/5/47
f 72/1/43 65/7/43 76/15/48
f 77/5/47 67/16/44 72/1/43
f 72/1/43 62/17/55 57/8/49
f 79/2/45 62/17/55 72/1/43
f 81/11/51 74/18/54 75/10/52
f 75/10/52 78/4/46 76/19/48
f 75/10/52 73/12/53 56/20/52
f 77/5/47 78/4/46 75/10/52
f 56/21/52 64/9/50 75/10/52
f 88/22/56 87/24/57 86/23/58
f 88/22/56 90/26/59 89/25/60
f 90/26/59 88/22/56 86/23/58
f 85/27/61 90/26/59 86/23/58
f 84/28/62 85/27/61 71/29/63
f 58/2/64 71/29/63 85/27/61
f 69/30/65 88/22/56 80/50/66
f 87/24/57 68/31/67 86/51/58
f 90/26/59 70/33/68 89/25/60
f 70/34/68 88/22/56 89/25/60
f 68/35/67 85/27/61 86/52/58
f 60/32/69 87/24/57 69/30/65
f 105/36/70 108/2/71 101/37/72
f 100/38/73 96/11/74 105/36/70
f 93/39/75 100/40/73 105/36/70
f 102/41/76 105/36/70 109/32/76
f 97/29/77 107/28/78 106/42/79
f 94/2/80 106/42/79 98/43/79
f 98/44/79 106/42/79 95/8/79
f 99/45/81 110/46/82 106/42/79
f 108/2/71 105/36/70 103/5/83
f 96/11/74 103/5/83 105/36/70
f 105/36/70 102/41/76 93/39/75
f 105/36/70 101/47/72 109/32/76
f 106/42/79 104/48/84 95/8/79
f 107/28/78 99/49/81 106/42/79
f 104/48/84 106/42/79 110/46/82
f 106/42/79 94/2/80 97/29/77
f 29/28/21 16/29/23 30/27/20
f 14/30/24 25/50/85 33/22/15
f 32/24/17 31/51/16 13/31/25
f 35/26/19 34/25/18 15/33/27
f 33/22/15 25/50/85 15/34/27
f 13/35/25 31/52/16 30/27/20
f 84/28/62 90/26/59 85/27/61
f 69/30/65 87/24/57 88/22/56
f 87/24/57 60/32/69 68/31/67
f 90/26/59 84/28/62 70/33/68
f 70/34/68 80/50/66 88/22/56
f 68/35/67 58/2/64 85/27/61
l 6 36
l 37 28
l 8 4
l 11 27
l 61 91
l 92 83
l 63 59
l 66 82
