# Blender 3.5.0
# www.blender.org
mtllib wall.mtl
o Cube
v -15.000000 -11.759623 15.000000
v -15.000000 15.000000 15.000000
v -15.000000 -11.759623 -15.000000
v -15.000000 15.000000 -15.000000
v 15.000000 -11.759623 15.000000
v 15.000000 15.000000 15.000000
v 15.000000 -11.759623 -15.000000
v 15.000000 15.000000 -15.000000
vn -0.0000 1.0000 -0.0000
vn -0.0000 -1.0000 -0.0000
vt 0.500000 1.000000
vt 1.000000 0.000000
vt 0.500000 0.000000
vt 1.000000 1.000000
vt -0.000000 1.000000
vt 0.500000 0.000000
vt 0.000000 0.000000
vt 0.500000 1.000000
s 0
usemtl rohrmap.003
f 3/3/1 1/1/1 5/5/1 7/7/1
f 8/8/2 6/6/2 2/2/2 4/4/2
